/* XPM */
static char*conntextnote[]={
"22 22 3 1",
". c #000000",
"# c None",
"a c #ffffff",
"...........###########",
".aaaaaaaaa.###########",
".aaaaaaaaa.###########",
"...........###########",
".aaaaaaaaa.###########",
".aaaaaaaaa.###########",
"...........###########",
"#####.################",
"#######.##############",
"#########.############",
"###########.##########",
"######.............###",
"######.aaaaaaaaaa.a.##",
"######.aaaaaaaaaa.aa.#",
"######.aaaaaaaaaa.....",
"######.aaaaaaaaaaaaaa.",
"######.a.......a....a.",
"######.aa.a.aaa.aa.aa.",
"######.aa.a.aaa.aa.aa.",
"######.aa.a....a.a.aa.",
"######.aaaaaaaaaaaaaa.",
"######................"};
