/* XPM */
static char * cursor_end_state_xpm[] = {
"32 32 3 1",
" 	c None",
".	c #000000",
"+	c #303030",
"         .                      ",
"         .                      ",
"         .                      ",
"         .                      ",
"         .                      ",
"         .                      ",
"         .                      ",
"         .                      ",
"         .                      ",
"......... .........             ",
"         .                      ",
"         .                      ",
"         .                      ",
"         .                      ",
"         .        ......        ",
"         .       ..++....       ",
"         .      ..      ..      ",
"         .     .. ....++ +.     ",
"         .    .. ........ ++    ",
"         .    .. ........ ..    ",
"              .. ........ ..    ",
"              .. ........ ..    ",
"              .. ........ ..    ",
"              .. ........ ..    ",
"               .. ++++++ ..     ",
"                ..      +.      ",
"                 ........       ",
"                  ......        ",
"                                ",
"                                ",
"                                ",
"                                "};
