/* XPM */
static char * cursor_initial_state_xpm[] = {
"32 32 2 1",
" 	c None",
".	c #000000",
"         .                      ",
"         .                      ",
"         .                      ",
"         .                      ",
"         .                      ",
"         .                      ",
"         .                      ",
"         .                      ",
"         .                      ",
"......... .........             ",
"         .                      ",
"         .                      ",
"         .                      ",
"         .                      ",
"         .        ......        ",
"         .       ........       ",
"         .      ..........      ",
"         .     ............     ",
"         .    ..............    ",
"         .    ..............    ",
"              ..............    ",
"              ..............    ",
"              ..............    ",
"              ..............    ",
"               ............     ",
"                ..........      ",
"                 ........       ",
"                  ......        ",
"                                ",
"                                ",
"                                ",
"                                "};
