/* XPM */
static char *end_state[]={
"22 22 3 1",
". c None",
"# c #000000",
"a c #303030",
"......................",
"......................",
"......................",
"......................",
"........######........",
".......##aa####.......",
"......##......##......",
".....##.####aa.a#.....",
"....##.########.aa....",
"....##.########.##....",
"....##.########.##....",
"....##.########.##....",
"....##.########.##....",
"....##.########.##....",
".....##.aaaaaa.##.....",
"......##......a#......",
".......########.......",
"........######........",
"......................",
"......................",
"......................",
"......................"};
