/* XPM */
static char *initial_state[]={
"22 22 2 1",
". c None",
"# c #000000",
"......................",
"......................",
"......................",
"......................",
"........######........",
".......########.......",
"......##########......",
".....############.....",
"....##############....",
"....##############....",
"....##############....",
"....##############....",
"....##############....",
"....##############....",
".....############.....",
"......##########......",
".......########.......",
"........######........",
"......................",
"......................",
"......................",
"......................"};
