/* XPM */
static char*interface[]={
"22 22 3 1",
"# c #000000",
". c None",
"a c #ffffff",
"......................",
"..##################..",
"..#aaaaaaaaaaaaaaaa#..",
"..#aaaaaaaaaaaaaaaa#..",
"..#aaa#a#aaa#a#aaaa#..",
"..#aa#a#aa#aa#a#aaa#..",
"..#a#a#aaa#aaa#a#aa#..",
"..#aa#a#aa#aa#a#aaa#..",
"..#aaa#a#aaa#a#aaaa#..",
"..#aaaaaaaaaaaaaaaa#..",
"..#aaaaaaaaaaaaaaaa#..",
"..##################..",
"..#aaaaaaaaaaaaaaaa#..",
"..#aaaaaaaaaaaaaaaa#..",
"..#aaaaaaaaaaaaaaaa#..",
"..##################..",
"..#aaaaaaaaaaaaaaaa#..",
"..#aaaaaaaaaaaaaaaa#..",
"..#aaaaaaaaaaaaaaaa#..",
"..##################..",
"......................",
"......................"};
