/* XPM */
static char*rectangle[]={
"22 22 2 1",
"# c #000000",
". c None",
"......................",
"......................",
"..##################..",
"..#................#..",
"..#................#..",
"..#................#..",
"..#................#..",
"..#................#..",
"..#................#..",
"..#................#..",
"..#................#..",
"..#................#..",
"..#................#..",
"..#................#..",
"..#................#..",
"..#................#..",
"..#................#..",
"..#................#..",
"..#................#..",
"..##################..",
"......................",
"......................"};
