/* XPM */
static char*photo[]={
"16 16 8 1",
"b c #c6c6c6",
"e c #848400",
"# c #000000",
"c c #848484",
"d c #ffff00",
"f c #840000",
". c None",
"a c #ffffff",
"..###########...",
"..#aaaaaaaa#a#..",
"..#aaaaaaaa#aa#.",
"..#aaa#########.",
"..#aa#baaab#aa#.",
".####c#####c###.",
"#bacccc####ccbb#",
"#bacc#ccccb#ccb#",
"#bac#ccccccc#cb#",
"#bac#bbc##cc#cb#",
"#baccbccaacc#cb#",
"#bbc#bc#de#c#cb#",
"#cccc#b#f#cccbc#",
".######cccc####.",
"..#aaaa####aaa#.",
"..#############."};
