/* XPM */
static char *uniassoc[]={
"22 22 3 1",
". c None",
"# c #000000",
"a c #303030",
"......................",
"......................",
"...##.................",
"...##.................",
"...##.................",
"...aa.................",
"...aa.................",
"...##.................",
"...##aa###aa###aa.....",
"...##aaaaaaa###aa.....",
"...............a#.....",
"...............a#.....",
"...............a#.....",
"...............aa.....",
"...............aa.....",
".............#.##.#...",
".............######...",
".............######...",
"..............####....",
"...............##.....",
"...............##.....",
"......................"};
