/* XPM */
static char*usecaserelation[]={
"22 22 4 1",
"b c #000080",
"# c #000000",
". c None",
"a c #ffffff",
"......................",
"......................",
"......##..............",
".....#aa#.............",
"....#aaaa#............",
"...#aaaaaa#...........",
"..#aaaaaaaa#..........",
".############.........",
"......##..............",
"......##..............",
"......##..b.b.b.b.....",
"......##...b...b......",
"......##..b.b.b.b.b...",
"......##..............",
"......##############..",
"......##############..",
"..................##..",
"..................##..",
"..................##..",
"..................##..",
"..................##..",
"......................"};
